<mxfile host="app.diagrams.net" modified="2024-07-08T07:26:49.924Z" agent="Mozilla/5.0 (Windows NT 10.0; Win64; x64) AppleWebKit/537.36 (KHTML, like Gecko) Chrome/126.0.0.0 Safari/537.36" etag="49MzbO9R-R0_ggPrZ_fw" version="24.6.4" type="device">
  <diagram name="Seite-1" id="EcXf4qIGCivFIWfZHsLK">
    <mxGraphModel dx="2309" dy="1301" grid="0" gridSize="10" guides="1" tooltips="1" connect="1" arrows="1" fold="1" page="0" pageScale="1" pageWidth="827" pageHeight="1169" math="0" shadow="0">
      <root>
        <mxCell id="0" />
        <mxCell id="1" parent="0" />
        <mxCell id="gY2DIQ2_9Ft2g-vhVXMh-1" value="" style="edgeStyle=none;curved=1;rounded=0;orthogonalLoop=1;jettySize=auto;html=1;fontSize=12;startSize=8;endSize=8;" edge="1" parent="1" source="gY2DIQ2_9Ft2g-vhVXMh-2" target="gY2DIQ2_9Ft2g-vhVXMh-5">
          <mxGeometry relative="1" as="geometry" />
        </mxCell>
        <mxCell id="gY2DIQ2_9Ft2g-vhVXMh-2" value="Start" style="strokeWidth=2;html=1;shape=mxgraph.flowchart.terminator;whiteSpace=wrap;" vertex="1" parent="1">
          <mxGeometry x="86" y="-182" width="146" height="65" as="geometry" />
        </mxCell>
        <mxCell id="gY2DIQ2_9Ft2g-vhVXMh-3" value="" style="edgeStyle=none;curved=1;rounded=0;orthogonalLoop=1;jettySize=auto;html=1;fontSize=12;startSize=8;endSize=8;" edge="1" parent="1" source="gY2DIQ2_9Ft2g-vhVXMh-4" target="gY2DIQ2_9Ft2g-vhVXMh-5">
          <mxGeometry relative="1" as="geometry" />
        </mxCell>
        <mxCell id="gY2DIQ2_9Ft2g-vhVXMh-4" value="Nutzeranfrage einlesen" style="shape=parallelogram;html=1;strokeWidth=2;perimeter=parallelogramPerimeter;whiteSpace=wrap;rounded=1;arcSize=12;size=0.23;" vertex="1" parent="1">
          <mxGeometry x="45" y="-87" width="215" height="55" as="geometry" />
        </mxCell>
        <mxCell id="gY2DIQ2_9Ft2g-vhVXMh-5" value="registrieren / einloggen" style="strokeWidth=2;html=1;shape=mxgraph.flowchart.decision;whiteSpace=wrap;" vertex="1" parent="1">
          <mxGeometry x="102.5" y="-11" width="100" height="100" as="geometry" />
        </mxCell>
        <mxCell id="gY2DIQ2_9Ft2g-vhVXMh-8" value="" style="endArrow=classic;html=1;rounded=0;fontSize=12;startSize=8;endSize=8;curved=0;" edge="1" parent="1">
          <mxGeometry width="50" height="50" relative="1" as="geometry">
            <mxPoint x="203" y="37" as="sourcePoint" />
            <mxPoint x="474" y="127" as="targetPoint" />
            <Array as="points">
              <mxPoint x="474" y="34" />
            </Array>
          </mxGeometry>
        </mxCell>
        <mxCell id="gY2DIQ2_9Ft2g-vhVXMh-66" value="&lt;span style=&quot;font-size: 16px; text-wrap: wrap;&quot;&gt;regestrieren&lt;/span&gt;" style="edgeLabel;html=1;align=center;verticalAlign=middle;resizable=0;points=[];fontSize=12;" vertex="1" connectable="0" parent="gY2DIQ2_9Ft2g-vhVXMh-8">
          <mxGeometry x="0.7246" y="2" relative="1" as="geometry">
            <mxPoint as="offset" />
          </mxGeometry>
        </mxCell>
        <mxCell id="gY2DIQ2_9Ft2g-vhVXMh-9" value="" style="endArrow=classic;html=1;rounded=0;fontSize=12;startSize=8;endSize=8;curved=0;" edge="1" parent="1" source="gY2DIQ2_9Ft2g-vhVXMh-5">
          <mxGeometry width="50" height="50" relative="1" as="geometry">
            <mxPoint x="37.299999999999955" y="77.00000000000004" as="sourcePoint" />
            <mxPoint x="11" y="158" as="targetPoint" />
            <Array as="points">
              <mxPoint x="9" y="41" />
            </Array>
          </mxGeometry>
        </mxCell>
        <mxCell id="gY2DIQ2_9Ft2g-vhVXMh-67" value="&lt;span style=&quot;font-size: 16px; text-wrap: wrap;&quot;&gt;einloggen&lt;/span&gt;" style="edgeLabel;html=1;align=center;verticalAlign=middle;resizable=0;points=[];fontSize=12;" vertex="1" connectable="0" parent="gY2DIQ2_9Ft2g-vhVXMh-9">
          <mxGeometry x="0.3478" y="-1" relative="1" as="geometry">
            <mxPoint as="offset" />
          </mxGeometry>
        </mxCell>
        <mxCell id="gY2DIQ2_9Ft2g-vhVXMh-52" style="edgeStyle=none;curved=1;rounded=0;orthogonalLoop=1;jettySize=auto;html=1;exitX=0.5;exitY=1;exitDx=0;exitDy=0;fontSize=12;startSize=8;endSize=8;" edge="1" parent="1" source="gY2DIQ2_9Ft2g-vhVXMh-12">
          <mxGeometry relative="1" as="geometry">
            <mxPoint x="467.0322580645161" y="220.25806451612902" as="targetPoint" />
          </mxGeometry>
        </mxCell>
        <mxCell id="gY2DIQ2_9Ft2g-vhVXMh-12" value="Formular anzeigen&lt;div&gt;&lt;br&gt;&lt;/div&gt;" style="rounded=0;whiteSpace=wrap;html=1;" vertex="1" parent="1">
          <mxGeometry x="407" y="138" width="120" height="60" as="geometry" />
        </mxCell>
        <mxCell id="gY2DIQ2_9Ft2g-vhVXMh-13" value="Eingabe vollständig?" style="rhombus;whiteSpace=wrap;html=1;" vertex="1" parent="1">
          <mxGeometry x="-40" y="172.8" width="102" height="93.2" as="geometry" />
        </mxCell>
        <mxCell id="gY2DIQ2_9Ft2g-vhVXMh-14" value="nein&lt;div&gt;&lt;br&gt;&lt;/div&gt;" style="text;html=1;align=center;verticalAlign=middle;resizable=0;points=[];autosize=1;strokeColor=none;fillColor=none;fontSize=16;" vertex="1" parent="1">
          <mxGeometry x="-185.5" y="212" width="48" height="50" as="geometry" />
        </mxCell>
        <mxCell id="gY2DIQ2_9Ft2g-vhVXMh-15" value="" style="endArrow=classic;html=1;rounded=0;fontSize=12;startSize=8;endSize=8;curved=1;exitX=0.5;exitY=1;exitDx=0;exitDy=0;" edge="1" parent="1" source="gY2DIQ2_9Ft2g-vhVXMh-36">
          <mxGeometry width="50" height="50" relative="1" as="geometry">
            <mxPoint x="169" y="322" as="sourcePoint" />
            <mxPoint x="11" y="360" as="targetPoint" />
          </mxGeometry>
        </mxCell>
        <mxCell id="gY2DIQ2_9Ft2g-vhVXMh-16" style="edgeStyle=none;curved=0;rounded=0;orthogonalLoop=1;jettySize=auto;html=1;exitX=0.5;exitY=1;exitDx=0;exitDy=0;strokeColor=default;align=center;verticalAlign=middle;fontFamily=Helvetica;fontSize=12;fontColor=default;labelBackgroundColor=default;startSize=8;endArrow=classic;endSize=8;" edge="1" parent="1" source="gY2DIQ2_9Ft2g-vhVXMh-17">
          <mxGeometry relative="1" as="geometry">
            <mxPoint x="10" y="629" as="targetPoint" />
          </mxGeometry>
        </mxCell>
        <mxCell id="gY2DIQ2_9Ft2g-vhVXMh-17" value="ist vorhanden ?" style="rhombus;whiteSpace=wrap;html=1;" vertex="1" parent="1">
          <mxGeometry x="-52" y="454" width="123" height="119" as="geometry" />
        </mxCell>
        <mxCell id="gY2DIQ2_9Ft2g-vhVXMh-18" value="Überprüfen Nutzer bekannt." style="rounded=0;whiteSpace=wrap;html=1;" vertex="1" parent="1">
          <mxGeometry x="-49" y="369" width="120" height="60" as="geometry" />
        </mxCell>
        <mxCell id="gY2DIQ2_9Ft2g-vhVXMh-19" value="" style="endArrow=classic;html=1;rounded=0;fontSize=12;startSize=8;endSize=8;curved=1;exitX=0.5;exitY=1;exitDx=0;exitDy=0;" edge="1" parent="1" source="gY2DIQ2_9Ft2g-vhVXMh-18">
          <mxGeometry width="50" height="50" relative="1" as="geometry">
            <mxPoint x="169" y="414" as="sourcePoint" />
            <mxPoint x="11" y="451" as="targetPoint" />
          </mxGeometry>
        </mxCell>
        <mxCell id="gY2DIQ2_9Ft2g-vhVXMh-20" value="" style="endArrow=classic;html=1;rounded=0;fontSize=12;startSize=8;endSize=8;curved=0;" edge="1" parent="1">
          <mxGeometry width="50" height="50" relative="1" as="geometry">
            <mxPoint x="101" y="27" as="sourcePoint" />
            <mxPoint x="-43" y="217" as="targetPoint" />
            <Array as="points">
              <mxPoint x="-185" y="31" />
              <mxPoint x="-185" y="219" />
            </Array>
          </mxGeometry>
        </mxCell>
        <mxCell id="gY2DIQ2_9Ft2g-vhVXMh-21" style="edgeStyle=none;curved=0;rounded=0;orthogonalLoop=1;jettySize=auto;html=1;exitX=0;exitY=0.5;exitDx=0;exitDy=0;entryX=0.223;entryY=0.229;entryDx=0;entryDy=0;entryPerimeter=0;strokeColor=default;align=center;verticalAlign=middle;fontFamily=Helvetica;fontSize=12;fontColor=default;labelBackgroundColor=default;startSize=8;endArrow=classic;endSize=8;" edge="1" parent="1" source="gY2DIQ2_9Ft2g-vhVXMh-17" target="gY2DIQ2_9Ft2g-vhVXMh-5">
          <mxGeometry relative="1" as="geometry">
            <Array as="points">
              <mxPoint x="-311" y="514" />
              <mxPoint x="-311" y="16" />
            </Array>
          </mxGeometry>
        </mxCell>
        <mxCell id="gY2DIQ2_9Ft2g-vhVXMh-22" value="nein" style="text;html=1;align=center;verticalAlign=middle;resizable=0;points=[];autosize=1;strokeColor=none;fillColor=none;fontSize=14;fontFamily=Helvetica;fontColor=default;labelBackgroundColor=default;" vertex="1" parent="1">
          <mxGeometry x="-237" y="483" width="44" height="29" as="geometry" />
        </mxCell>
        <mxCell id="gY2DIQ2_9Ft2g-vhVXMh-23" style="edgeStyle=none;curved=0;rounded=0;orthogonalLoop=1;jettySize=auto;html=1;strokeColor=default;align=center;verticalAlign=middle;fontFamily=Helvetica;fontSize=12;fontColor=default;labelBackgroundColor=default;startSize=8;endArrow=classic;endSize=8;entryX=0.377;entryY=0.066;entryDx=0;entryDy=0;entryPerimeter=0;" edge="1" parent="1" target="gY2DIQ2_9Ft2g-vhVXMh-5">
          <mxGeometry relative="1" as="geometry">
            <mxPoint x="129" y="-12" as="targetPoint" />
            <mxPoint x="-46" y="878" as="sourcePoint" />
            <Array as="points">
              <mxPoint x="-412" y="878" />
              <mxPoint x="-410" y="1" />
            </Array>
          </mxGeometry>
        </mxCell>
        <mxCell id="gY2DIQ2_9Ft2g-vhVXMh-24" style="edgeStyle=none;curved=0;rounded=0;orthogonalLoop=1;jettySize=auto;html=1;exitX=0.5;exitY=1;exitDx=0;exitDy=0;entryX=0.5;entryY=0;entryDx=0;entryDy=0;strokeColor=default;align=center;verticalAlign=middle;fontFamily=Helvetica;fontSize=12;fontColor=default;labelBackgroundColor=default;startSize=8;endArrow=classic;endSize=8;" edge="1" parent="1" source="gY2DIQ2_9Ft2g-vhVXMh-25" target="gY2DIQ2_9Ft2g-vhVXMh-29">
          <mxGeometry relative="1" as="geometry" />
        </mxCell>
        <mxCell id="gY2DIQ2_9Ft2g-vhVXMh-25" value="" style="verticalLabelPosition=bottom;verticalAlign=top;html=1;shape=process;whiteSpace=wrap;rounded=1;size=0.14;arcSize=6;fontFamily=Helvetica;fontSize=12;fontColor=default;labelBackgroundColor=default;" vertex="1" parent="1">
          <mxGeometry x="-156" y="629" width="350" height="163" as="geometry" />
        </mxCell>
        <mxCell id="gY2DIQ2_9Ft2g-vhVXMh-26" style="edgeStyle=none;curved=0;rounded=0;orthogonalLoop=1;jettySize=auto;html=1;exitX=0.5;exitY=0;exitDx=0;exitDy=0;strokeColor=default;align=center;verticalAlign=middle;fontFamily=Helvetica;fontSize=12;fontColor=default;labelBackgroundColor=default;startSize=8;endArrow=classic;endSize=8;" edge="1" parent="1" source="gY2DIQ2_9Ft2g-vhVXMh-25" target="gY2DIQ2_9Ft2g-vhVXMh-25">
          <mxGeometry relative="1" as="geometry" />
        </mxCell>
        <mxCell id="gY2DIQ2_9Ft2g-vhVXMh-27" value="Passwortüberprüfen()&lt;div style=&quot;font-size: 17px;&quot;&gt;&lt;br style=&quot;font-size: 17px;&quot;&gt;&lt;/div&gt;&lt;div style=&quot;font-size: 17px;&quot;&gt;hash_pw(nutzereingabe)&lt;/div&gt;&lt;div style=&quot;font-size: 17px;&quot;&gt;&lt;br&gt;&lt;/div&gt;&lt;div style=&quot;font-size: 17px;&quot;&gt;&lt;span style=&quot;font-size: 15px;&quot; dir=&quot;ltr&quot; class=&quot;ui-provider a b c d e f g h i j k l m n o p q r s t u v w x y z ab ac ae af ag ah ai aj ak&quot;&gt;DatenbankNutzer == inputNutzer&amp;nbsp;&lt;/span&gt;&lt;/div&gt;&lt;div style=&quot;font-size: 17px;&quot;&gt;&lt;span style=&quot;font-size: 14px;&quot; dir=&quot;ltr&quot; class=&quot;ui-provider a b c d e f g h i j k l m n o p q r s t u v w x y z ab ac ae af ag ah ai aj ak&quot;&gt;&amp;amp;&amp;amp; DatenbankHash == NutzerHash ??&lt;/span&gt;&lt;br&gt;&lt;/div&gt;" style="text;html=1;align=center;verticalAlign=middle;resizable=0;points=[];autosize=1;strokeColor=none;fillColor=none;fontSize=17;fontFamily=Helvetica;fontColor=default;labelBackgroundColor=default;" vertex="1" parent="1">
          <mxGeometry x="-111" y="636.5" width="258" height="134" as="geometry" />
        </mxCell>
        <mxCell id="gY2DIQ2_9Ft2g-vhVXMh-28" value="nein" style="text;html=1;align=center;verticalAlign=middle;resizable=0;points=[];autosize=1;strokeColor=none;fillColor=none;fontSize=14;fontFamily=Helvetica;fontColor=default;labelBackgroundColor=default;" vertex="1" parent="1">
          <mxGeometry x="-292" y="842" width="44" height="29" as="geometry" />
        </mxCell>
        <mxCell id="gY2DIQ2_9Ft2g-vhVXMh-29" value="pw_hash == hash ?" style="rhombus;whiteSpace=wrap;html=1;" vertex="1" parent="1">
          <mxGeometry x="-43.5" y="820" width="123" height="119" as="geometry" />
        </mxCell>
        <mxCell id="gY2DIQ2_9Ft2g-vhVXMh-30" value="" style="verticalLabelPosition=bottom;verticalAlign=top;html=1;shape=mxgraph.basic.rect;fillColor2=none;strokeWidth=1;size=20;indent=5;fontFamily=Helvetica;fontSize=12;fontColor=default;labelBackgroundColor=default;" vertex="1" parent="1">
          <mxGeometry x="-42" y="971" width="120" height="60" as="geometry" />
        </mxCell>
        <mxCell id="gY2DIQ2_9Ft2g-vhVXMh-31" value="anzeigen Nutzerbereich" style="text;html=1;align=center;verticalAlign=middle;resizable=0;points=[];autosize=1;strokeColor=none;fillColor=none;fontSize=10;fontFamily=Helvetica;fontColor=default;labelBackgroundColor=default;" vertex="1" parent="1">
          <mxGeometry x="-43.5" y="989" width="124" height="24" as="geometry" />
        </mxCell>
        <mxCell id="gY2DIQ2_9Ft2g-vhVXMh-32" style="edgeStyle=none;curved=0;rounded=0;orthogonalLoop=1;jettySize=auto;html=1;exitX=0.5;exitY=1;exitDx=0;exitDy=0;entryX=0.498;entryY=-0.04;entryDx=0;entryDy=0;entryPerimeter=0;strokeColor=default;align=center;verticalAlign=middle;fontFamily=Helvetica;fontSize=12;fontColor=default;labelBackgroundColor=default;startSize=8;endArrow=classic;endSize=8;" edge="1" parent="1" source="gY2DIQ2_9Ft2g-vhVXMh-29" target="gY2DIQ2_9Ft2g-vhVXMh-30">
          <mxGeometry relative="1" as="geometry" />
        </mxCell>
        <mxCell id="gY2DIQ2_9Ft2g-vhVXMh-33" value="ja" style="text;html=1;align=center;verticalAlign=middle;resizable=0;points=[];autosize=1;strokeColor=none;fillColor=none;fontSize=12;fontFamily=Helvetica;fontColor=default;labelBackgroundColor=default;" vertex="1" parent="1">
          <mxGeometry x="14" y="936" width="27" height="26" as="geometry" />
        </mxCell>
        <mxCell id="gY2DIQ2_9Ft2g-vhVXMh-34" value="ja" style="text;html=1;align=center;verticalAlign=middle;resizable=0;points=[];autosize=1;strokeColor=none;fillColor=none;fontSize=12;fontFamily=Helvetica;fontColor=default;labelBackgroundColor=default;" vertex="1" parent="1">
          <mxGeometry x="4.5" y="583" width="27" height="26" as="geometry" />
        </mxCell>
        <mxCell id="gY2DIQ2_9Ft2g-vhVXMh-35" value="" style="endArrow=classic;html=1;rounded=0;fontSize=12;startSize=8;endSize=8;curved=1;exitX=0.5;exitY=1;exitDx=0;exitDy=0;" edge="1" parent="1" source="gY2DIQ2_9Ft2g-vhVXMh-13" target="gY2DIQ2_9Ft2g-vhVXMh-36">
          <mxGeometry width="50" height="50" relative="1" as="geometry">
            <mxPoint x="11" y="266" as="sourcePoint" />
            <mxPoint x="11" y="360" as="targetPoint" />
          </mxGeometry>
        </mxCell>
        <mxCell id="gY2DIQ2_9Ft2g-vhVXMh-36" value="ja" style="text;html=1;align=center;verticalAlign=middle;resizable=0;points=[];autosize=1;strokeColor=none;fillColor=none;fontSize=12;fontFamily=Helvetica;fontColor=default;labelBackgroundColor=default;" vertex="1" parent="1">
          <mxGeometry x="-2.5" y="287" width="27" height="26" as="geometry" />
        </mxCell>
        <mxCell id="gY2DIQ2_9Ft2g-vhVXMh-38" value="Stop" style="strokeWidth=2;html=1;shape=mxgraph.flowchart.terminator;whiteSpace=wrap;" vertex="1" parent="1">
          <mxGeometry x="-33.25" y="1072" width="101.5" height="45" as="geometry" />
        </mxCell>
        <mxCell id="gY2DIQ2_9Ft2g-vhVXMh-39" value="" style="endArrow=classic;html=1;rounded=0;strokeColor=default;align=center;verticalAlign=middle;fontFamily=Helvetica;fontSize=12;fontColor=default;labelBackgroundColor=default;startSize=8;endSize=8;curved=0;exitX=0.478;exitY=1.006;exitDx=0;exitDy=0;exitPerimeter=0;" edge="1" parent="1" source="gY2DIQ2_9Ft2g-vhVXMh-30">
          <mxGeometry width="50" height="50" relative="1" as="geometry">
            <mxPoint x="51.5" y="1058" as="sourcePoint" />
            <mxPoint x="15" y="1070" as="targetPoint" />
          </mxGeometry>
        </mxCell>
        <mxCell id="gY2DIQ2_9Ft2g-vhVXMh-40" value="ja" style="text;html=1;align=center;verticalAlign=middle;resizable=0;points=[];autosize=1;strokeColor=none;fillColor=none;fontSize=12;fontFamily=Helvetica;fontColor=default;labelBackgroundColor=default;" vertex="1" parent="1">
          <mxGeometry x="12" y="790" width="27" height="26" as="geometry" />
        </mxCell>
        <mxCell id="gY2DIQ2_9Ft2g-vhVXMh-41" value="ja" style="text;html=1;align=center;verticalAlign=middle;resizable=0;points=[];autosize=1;strokeColor=none;fillColor=none;fontSize=12;fontFamily=Helvetica;fontColor=default;labelBackgroundColor=default;" vertex="1" parent="1">
          <mxGeometry x="14" y="1039" width="27" height="26" as="geometry" />
        </mxCell>
        <mxCell id="gY2DIQ2_9Ft2g-vhVXMh-47" style="edgeStyle=none;curved=0;rounded=0;orthogonalLoop=1;jettySize=auto;html=1;exitX=1;exitY=0.5;exitDx=0;exitDy=0;fontSize=12;startSize=8;endSize=8;entryX=0.622;entryY=0.111;entryDx=0;entryDy=0;entryPerimeter=0;" edge="1" parent="1" source="gY2DIQ2_9Ft2g-vhVXMh-44" target="gY2DIQ2_9Ft2g-vhVXMh-5">
          <mxGeometry relative="1" as="geometry">
            <mxPoint x="203" as="targetPoint" />
            <Array as="points">
              <mxPoint x="597" y="274" />
              <mxPoint x="593" y="-4" />
            </Array>
          </mxGeometry>
        </mxCell>
        <mxCell id="gY2DIQ2_9Ft2g-vhVXMh-55" value="abbrechen" style="edgeLabel;html=1;align=center;verticalAlign=middle;resizable=0;points=[];fontSize=12;" vertex="1" connectable="0" parent="gY2DIQ2_9Ft2g-vhVXMh-47">
          <mxGeometry x="-0.442" relative="1" as="geometry">
            <mxPoint x="-2" y="-34" as="offset" />
          </mxGeometry>
        </mxCell>
        <mxCell id="gY2DIQ2_9Ft2g-vhVXMh-48" style="edgeStyle=none;curved=1;rounded=0;orthogonalLoop=1;jettySize=auto;html=1;exitX=0.5;exitY=1;exitDx=0;exitDy=0;fontSize=12;startSize=8;endSize=8;" edge="1" parent="1" source="gY2DIQ2_9Ft2g-vhVXMh-44">
          <mxGeometry relative="1" as="geometry">
            <mxPoint x="467.5" y="380" as="targetPoint" />
          </mxGeometry>
        </mxCell>
        <mxCell id="gY2DIQ2_9Ft2g-vhVXMh-54" value="registrieren" style="edgeLabel;html=1;align=center;verticalAlign=middle;resizable=0;points=[];fontSize=12;" vertex="1" connectable="0" parent="gY2DIQ2_9Ft2g-vhVXMh-48">
          <mxGeometry x="-0.2958" y="1" relative="1" as="geometry">
            <mxPoint as="offset" />
          </mxGeometry>
        </mxCell>
        <mxCell id="gY2DIQ2_9Ft2g-vhVXMh-44" value="Abbrechen / Registrieren" style="rhombus;whiteSpace=wrap;html=1;" vertex="1" parent="1">
          <mxGeometry x="416.5" y="221" width="101" height="106" as="geometry" />
        </mxCell>
        <mxCell id="gY2DIQ2_9Ft2g-vhVXMh-51" value="" style="edgeStyle=none;curved=1;rounded=0;orthogonalLoop=1;jettySize=auto;html=1;fontSize=12;startSize=8;endSize=8;" edge="1" parent="1" source="gY2DIQ2_9Ft2g-vhVXMh-49" target="gY2DIQ2_9Ft2g-vhVXMh-50">
          <mxGeometry relative="1" as="geometry" />
        </mxCell>
        <mxCell id="gY2DIQ2_9Ft2g-vhVXMh-49" value="überprüfen Eingaben vollständig" style="whiteSpace=wrap;html=1;aspect=fixed;" vertex="1" parent="1">
          <mxGeometry x="433.5" y="385" width="75" height="75" as="geometry" />
        </mxCell>
        <mxCell id="gY2DIQ2_9Ft2g-vhVXMh-57" style="edgeStyle=none;curved=0;rounded=0;orthogonalLoop=1;jettySize=auto;html=1;exitX=1;exitY=0.5;exitDx=0;exitDy=0;fontSize=12;startSize=8;endSize=8;" edge="1" parent="1" source="gY2DIQ2_9Ft2g-vhVXMh-50">
          <mxGeometry relative="1" as="geometry">
            <mxPoint x="538" y="164" as="targetPoint" />
            <Array as="points">
              <mxPoint x="646" y="540" />
              <mxPoint x="641" y="164" />
            </Array>
          </mxGeometry>
        </mxCell>
        <mxCell id="gY2DIQ2_9Ft2g-vhVXMh-50" value="Formular vollstänfig ausgefüllt ?" style="rhombus;whiteSpace=wrap;html=1;" vertex="1" parent="1">
          <mxGeometry x="419.25" y="484" width="103.5" height="107" as="geometry" />
        </mxCell>
        <mxCell id="gY2DIQ2_9Ft2g-vhVXMh-56" value="ja" style="text;html=1;align=center;verticalAlign=middle;resizable=0;points=[];autosize=1;strokeColor=none;fillColor=none;fontSize=12;fontFamily=Helvetica;fontColor=default;labelBackgroundColor=default;" vertex="1" parent="1">
          <mxGeometry x="467" y="591" width="27" height="26" as="geometry" />
        </mxCell>
        <mxCell id="gY2DIQ2_9Ft2g-vhVXMh-58" value="nein" style="text;html=1;align=center;verticalAlign=middle;resizable=0;points=[];autosize=1;strokeColor=none;fillColor=none;fontSize=16;" vertex="1" parent="1">
          <mxGeometry x="563" y="507" width="48" height="31" as="geometry" />
        </mxCell>
        <mxCell id="gY2DIQ2_9Ft2g-vhVXMh-60" style="edgeStyle=none;curved=0;rounded=0;orthogonalLoop=1;jettySize=auto;html=1;exitX=0.5;exitY=1;exitDx=0;exitDy=0;entryX=0.5;entryY=0;entryDx=0;entryDy=0;strokeColor=default;align=center;verticalAlign=middle;fontFamily=Helvetica;fontSize=12;fontColor=default;labelBackgroundColor=default;startSize=8;endArrow=classic;endSize=8;" edge="1" parent="1" source="gY2DIQ2_9Ft2g-vhVXMh-61">
          <mxGeometry relative="1" as="geometry">
            <mxPoint x="466" y="820" as="targetPoint" />
          </mxGeometry>
        </mxCell>
        <mxCell id="gY2DIQ2_9Ft2g-vhVXMh-69" style="edgeStyle=none;curved=0;rounded=0;orthogonalLoop=1;jettySize=auto;html=1;exitX=1;exitY=0.5;exitDx=0;exitDy=0;fontSize=12;startSize=8;endSize=8;" edge="1" parent="1" source="gY2DIQ2_9Ft2g-vhVXMh-61">
          <mxGeometry relative="1" as="geometry">
            <mxPoint x="537" y="147" as="targetPoint" />
            <Array as="points">
              <mxPoint x="667" y="711" />
              <mxPoint x="662" y="147" />
            </Array>
          </mxGeometry>
        </mxCell>
        <mxCell id="gY2DIQ2_9Ft2g-vhVXMh-70" value="&lt;font style=&quot;font-size: 16px;&quot;&gt;nein&lt;/font&gt;" style="edgeLabel;html=1;align=center;verticalAlign=middle;resizable=0;points=[];fontSize=12;" vertex="1" connectable="0" parent="gY2DIQ2_9Ft2g-vhVXMh-69">
          <mxGeometry x="-0.5961" y="-4" relative="1" as="geometry">
            <mxPoint as="offset" />
          </mxGeometry>
        </mxCell>
        <mxCell id="gY2DIQ2_9Ft2g-vhVXMh-61" value="" style="verticalLabelPosition=bottom;verticalAlign=top;html=1;shape=process;whiteSpace=wrap;rounded=1;size=0.14;arcSize=6;fontFamily=Helvetica;fontSize=12;fontColor=default;labelBackgroundColor=default;" vertex="1" parent="1">
          <mxGeometry x="292" y="629" width="347" height="163" as="geometry" />
        </mxCell>
        <mxCell id="gY2DIQ2_9Ft2g-vhVXMh-62" style="edgeStyle=none;curved=0;rounded=0;orthogonalLoop=1;jettySize=auto;html=1;exitX=0.5;exitY=0;exitDx=0;exitDy=0;strokeColor=default;align=center;verticalAlign=middle;fontFamily=Helvetica;fontSize=12;fontColor=default;labelBackgroundColor=default;startSize=8;endArrow=classic;endSize=8;" edge="1" parent="1" source="gY2DIQ2_9Ft2g-vhVXMh-61" target="gY2DIQ2_9Ft2g-vhVXMh-61">
          <mxGeometry relative="1" as="geometry" />
        </mxCell>
        <mxCell id="gY2DIQ2_9Ft2g-vhVXMh-63" value="&lt;div style=&quot;font-size: 17px;&quot;&gt;NutzerdatenÜberprüfen()&lt;/div&gt;&lt;div style=&quot;font-size: 17px;&quot;&gt;&lt;br&gt;&lt;/div&gt;&lt;div style=&quot;font-size: 17px;&quot;&gt;istPasswortSicher(pw) &amp;amp;&amp;amp;&lt;/div&gt;&lt;div style=&quot;font-size: 17px;&quot;&gt;stimmenPwÜberein(pw) &amp;amp;&amp;amp;&lt;/div&gt;&lt;div style=&quot;font-size: 16px;&quot;&gt;nutzerNameNochNichtInDB(user)&lt;/div&gt;" style="text;html=1;align=center;verticalAlign=middle;resizable=0;points=[];autosize=1;strokeColor=none;fillColor=none;fontSize=17;fontFamily=Helvetica;fontColor=default;labelBackgroundColor=default;" vertex="1" parent="1">
          <mxGeometry x="338" y="647.5" width="256" height="113" as="geometry" />
        </mxCell>
        <mxCell id="gY2DIQ2_9Ft2g-vhVXMh-64" value="ja" style="text;html=1;align=center;verticalAlign=middle;resizable=0;points=[];autosize=1;strokeColor=none;fillColor=none;fontSize=12;fontFamily=Helvetica;fontColor=default;labelBackgroundColor=default;" vertex="1" parent="1">
          <mxGeometry x="460" y="790" width="27" height="26" as="geometry" />
        </mxCell>
        <mxCell id="gY2DIQ2_9Ft2g-vhVXMh-68" style="edgeStyle=none;curved=1;rounded=0;orthogonalLoop=1;jettySize=auto;html=1;exitX=0.5;exitY=1;exitDx=0;exitDy=0;entryX=0.516;entryY=-0.017;entryDx=0;entryDy=0;entryPerimeter=0;fontSize=12;startSize=8;endSize=8;" edge="1" parent="1" source="gY2DIQ2_9Ft2g-vhVXMh-50" target="gY2DIQ2_9Ft2g-vhVXMh-61">
          <mxGeometry relative="1" as="geometry" />
        </mxCell>
        <mxCell id="gY2DIQ2_9Ft2g-vhVXMh-75" style="edgeStyle=none;curved=1;rounded=0;orthogonalLoop=1;jettySize=auto;html=1;exitX=0.5;exitY=1;exitDx=0;exitDy=0;fontSize=12;startSize=8;endSize=8;" edge="1" parent="1" source="gY2DIQ2_9Ft2g-vhVXMh-71">
          <mxGeometry relative="1" as="geometry">
            <mxPoint x="465.8333333333335" y="968.666666666667" as="targetPoint" />
          </mxGeometry>
        </mxCell>
        <mxCell id="gY2DIQ2_9Ft2g-vhVXMh-71" value="Nutzer in DB anlegen und Regestrierungspage anzeigen" style="whiteSpace=wrap;html=1;aspect=fixed;" vertex="1" parent="1">
          <mxGeometry x="410.5" y="824" width="111" height="111" as="geometry" />
        </mxCell>
        <mxCell id="gY2DIQ2_9Ft2g-vhVXMh-77" style="edgeStyle=none;curved=0;rounded=0;orthogonalLoop=1;jettySize=auto;html=1;exitX=1;exitY=0.5;exitDx=0;exitDy=0;fontSize=12;startSize=8;endSize=8;entryX=0.829;entryY=0.318;entryDx=0;entryDy=0;entryPerimeter=0;" edge="1" parent="1" source="gY2DIQ2_9Ft2g-vhVXMh-74" target="gY2DIQ2_9Ft2g-vhVXMh-5">
          <mxGeometry relative="1" as="geometry">
            <mxPoint x="209" y="20" as="targetPoint" />
            <Array as="points">
              <mxPoint x="948" y="1001" />
              <mxPoint x="937" y="17" />
            </Array>
          </mxGeometry>
        </mxCell>
        <mxCell id="gY2DIQ2_9Ft2g-vhVXMh-74" value="&lt;font style=&quot;font-size: 10px;&quot;&gt;zurück zu Anmeldungsseite button&lt;/font&gt;" style="shape=parallelogram;html=1;strokeWidth=2;perimeter=parallelogramPerimeter;whiteSpace=wrap;rounded=1;arcSize=12;size=0.23;" vertex="1" parent="1">
          <mxGeometry x="359.5" y="973.5" width="215" height="55" as="geometry" />
        </mxCell>
      </root>
    </mxGraphModel>
  </diagram>
</mxfile>
